<svg id="SvgjsSvg1013" width="288" height="288" xmlns="http://www.w3.org/2000/svg" version="1.1" xmlns:xlink="http://www.w3.org/1999/xlink" xmlns:svgjs="http://svgjs.com/svgjs"><defs id="SvgjsDefs1014"></defs><g id="SvgjsG1015"><svg xmlns="http://www.w3.org/2000/svg" data-name="Layer 1" viewBox="0 0 1201 1201" width="288" height="288"><g data-name="&amp;lt;Group&amp;gt;" fill="#17b3c1" class="color000 svgShape"><path d="M399.23 421.17a11.47 11.47 0 0 0 16.2 0l35.86-35.86a36.76 36.76 0 0 0 0-51.92l-95.51-95.51a36.72 36.72 0 0 0-51.92 0L268 273.74a11.47 11.47 0 0 0 0 16.2zM795 729l-35.86 35.86a11.47 11.47 0 0 0 0 16.2L890.35 912.3a11.47 11.47 0 0 0 16.2 0l35.86-35.86a36.76 36.76 0 0 0 0-51.92L846.89 729a36.76 36.76 0 0 0-51.89 0zM697.75 589.3h135.52V465.32h123.98V329.8H833.27V205.82H697.75V329.8H573.77v135.52h123.98V589.3z" data-name="&amp;lt;Path&amp;gt;" fill="#17b3c1" class="color000 svgShape"></path><path d="M1001.38 1050.69c-18.17-3.18-37.26-.17-55.1-5.07a44.9 44.9 0 0 1-9.26-3.51c6.45-.61 13.5-1.89 17.91-6.21a13.38 13.38 0 0 0-4.05-21.81c-6.72-3.06-16.71-1.57-23.46.71a29.26 29.26 0 0 0-11 6.56c-.49-.05-1-.09-1.46-.15-8.72-1.13-18.86-3.61-25.89-9.22a18.14 18.14 0 0 1-5.57-7.84c9.52 3.5 20 4.36 28.2-1.45 7.4-5.27 10-16.49 3.67-23.66-5.3-6-13.51-6.2-21-6a40.81 40.81 0 0 0-16.74 3.8l-.86-.69c-6.83-5.58-13.23-11.75-19.59-17.93 19.78-11.85 28.59-25.1 28.73-25.32l.22-.34-143.19-143.2-.4-.4-.35.44c-.08.1-8.12 10.12-27.1 11.51-17.59 1.3-48.42-4.74-95.41-40.85-92.38-71-181.47-171.41-219.55-219.55-20.53-26-20.9-51.4-17.59-68.17a87.1 87.1 0 0 1 12.26-30.54l.24-.34-147.31-147.32-.34.21c-.38.24-37.81 24.35-44.46 83.18-4.7 41.54 6.74 90.06 34 144.21 34.9 69.32 95.8 147.67 181 232.88 87.27 87.27 167.46 149.73 238.35 185.67 47.65 24.15 91 36.34 129.11 36.34a168.05 168.05 0 0 0 17.73-.92 139 139 0 0 0 33.88-7.83c8.65 8.37 17.23 17 26.65 24.52a29.38 29.38 0 0 0-1.32 6.46c-2.44 26.29 23.48 38.95 47.57 42.68 3.13 13.13 20.11 21.7 32.33 24.73 17.63 4.36 35.84 1.56 53.56 4.67 5.58 1 11.31-1.5 12.92-7.33 1.4-5.07-1.71-11.94-7.33-12.92Zm-58.8-17.09c.44 0 .34.09 0 0Z" data-name="&amp;lt;Compound Path&amp;gt;" fill="#17b3c1" class="color000 svgShape"></path></g></svg></g></svg>